<mxfile host="app.diagrams.net" modified="2021-06-27T12:41:31.527Z" agent="5.0 (Macintosh; Intel Mac OS X 10_15_7) AppleWebKit/537.36 (KHTML, like Gecko) Chrome/91.0.4472.114 Safari/537.36" etag="FfLhpH6zJmgHndK5d_fr" version="14.8.1" type="github">
  <diagram id="6L79kCgvQuW8ybfBiqUf" name="Page-1">
    <mxGraphModel dx="1426" dy="769" grid="1" gridSize="10" guides="1" tooltips="1" connect="1" arrows="1" fold="1" page="1" pageScale="1" pageWidth="827" pageHeight="1169" math="0" shadow="0">
      <root>
        <mxCell id="0" />
        <mxCell id="1" parent="0" />
        <mxCell id="3ksg9LKlmD6LITCAMM1U-1" value="" style="verticalLabelPosition=bottom;verticalAlign=top;html=1;shape=mxgraph.basic.partConcEllipse;startAngle=0.25;endAngle=0.1;arcWidth=0.5;fillColor=#000000;strokeColor=#B3B3B3;" vertex="1" parent="1">
          <mxGeometry x="314" y="385" width="200" height="200" as="geometry" />
        </mxCell>
        <mxCell id="3ksg9LKlmD6LITCAMM1U-5" value="" style="html=1;shadow=0;dashed=0;align=center;verticalAlign=middle;shape=mxgraph.arrows2.jumpInArrow;dy=15;dx=38;arrowHead=55;fillColor=#007FFF;strokeColor=#00FFFF;" vertex="1" parent="1">
          <mxGeometry x="414" y="420" width="100" height="100" as="geometry" />
        </mxCell>
      </root>
    </mxGraphModel>
  </diagram>
</mxfile>
